{"title":"New.Kids.Turbo.2010.DUTCH.BDRip.XviD-VeDeTT","uid":6309548,"size":734278738,"categoryP":"video","categoryS":"movies","magnet":"?xt=urn:btih:b8aa01133fd826b0669021e6d311f41798fb984d&amp;dn=New.Kids.Turbo.2010.DUTCH.BDRip.XviD-VeDeTT&amp;tr=udp%3A%2F%2Ftracker.openbittorrent.com%3A80&amp;tr=udp%3A%2F%2Fopen.demonii.com%3A1337&amp;tr=udp%3A%2F%2Ftracker.coppersurfer.tk%3A6969&amp;tr=udp%3A%2F%2Fexodus.desync.com%3A6969","seeders":56,"leechers":1,"uploader":"illigaal","files":-1,"time":1302486001,"description":"New.Kids.Turbo.2010.DUTCH.BDRip.XviD-VeDeTT\n\nNederland\nKomedie\n87 minuten\n\ngeregisseerd door Steffen Haars en Flip van der Kuil\nmet Flip Van der Kuil, Steffen Haars en Nicole van Nierop\n\nDe crisis heeft toegeslagen. Ook de hangjongeren Gerrie, Richard, Rikkert, Robbie en Barrie \nin het Brabantse dorpje Maaskantje zijn door misverstanden hun banen kwijtgeraakt. \nZelfs nog erger, hun uitkeringen zijn stopgezet. \nMet slechts een logische oplossing, nergens meer voor betalen, loopt alles uit de hand.\n \n\n &lt;a href=&quot; http://www.moviemeter.nl/film/70149&quot; rel=&quot;nofollow&quot; target=&quot;_NEW&quot;&gt; http://www.moviemeter.nl/film/70149&lt;/a&gt; \n \n\n\n\nFormat                           : AVI\nFormat/Info                      : Audio Video Interleave\nFile size                        : 700 MiB\nDuration                         : 1h 24mn\nOverall bit rate                 : 1 155 Kbps\nWriting application              : VirtualDubMod 1.5.10.2 (build 2540/release)\nWriting library                  : VirtualDubMod build 2540/release\n\nVideo\nID                               : 0\nFormat                           : MPEG-4 Visual\nFormat profile                   : AdvancedSimple@L5\nFormat settings, BVOP            : Yes\nFormat settings, QPel            : No\nFormat settings, GMC             : No warppoints\nFormat settings, Matrix          : Default (H.263)\nCodec ID                         : XVID\nCodec ID/Hint                    : XviD\nDuration                         : 1h 24mn\nBit rate                         : 1 012 Kbps\nWidth                            : 640 pixels\nHeight                           : 272 pixels\nDisplay aspect ratio             : 2.35:1\nFrame rate                       : 24.000 fps\nResolution                       : 24 bits\nColorimetry                      : 4:2:0\nScan type                        : Progressive\nBits/(Pixel*Frame)               : 0.242\nStream size                      : 614 MiB (88%)\nWriting library                  : XviD 1.2.1 (UTC 2008-12-04)\n\nAudio\nID                               : 1\nFormat                           : MPEG Audio\nFormat version                   : Version 1\nFormat profile                   : Layer 3\nFormat settings, Mode            : Joint stereo / MS Stereo\nCodec ID                         : 55\nCodec ID/Hint                    : MP3\nDuration                         : 1h 24mn\nBit rate mode                    : Variable\nBit rate                         : 130 Kbps\nNominal bit rate                 : 128 Kbps\nChannel(s)                       : 2 channels\nSampling rate                    : 48.0 KHz\nResolution                       : 16 bits\nStream size                      : 78.6 MiB (11%)\nAlignment                        : Aligned on interleaves\nInterleave, duration             : 24 ms (0.58 video frame)\nInterleave, preload duration     : 142 ms\nWriting library                  : LAME3.90.\nEncoding settings                : -m j -V 4 -q 2 -lowpass 17.6 --abr 128\n\n\n","torrent":{"xt":"urn:btih:b8aa01133fd826b0669021e6d311f41798fb984d","amp;dn":"New.Kids.Turbo.2010.DUTCH.BDRip.XviD-VeDeTT","amp;tr":["udp%3A%2F%2Ftracker.openbittorrent.com%3A80","udp%3A%2F%2Fopen.demonii.com%3A1337","udp%3A%2F%2Ftracker.coppersurfer.tk%3A6969","udp%3A%2F%2Fexodus.desync.com%3A6969"],"infoHash":"b8aa01133fd826b0669021e6d311f41798fb984d","infoHashBuffer":{"type":"Buffer","data":[184,170,1,19,63,216,38,176,102,144,33,230,211,17,244,23,152,251,152,77]},"announce":[],"urlList":[]}}